<?xml version="1.0" encoding="UTF-8"?>
<svg width="726" height="726" version="1.1" viewBox="0 0 726 726" xml:space="preserve" xmlns="http://www.w3.org/2000/svg" xmlns:cc="http://creativecommons.org/ns#" xmlns:dc="http://purl.org/dc/elements/1.1/" xmlns:rdf="http://www.w3.org/1999/02/22-rdf-syntax-ns#"><title>AmeriCorps NCCC (National Civilian Community Corps) Logo</title><metadata><rdf:RDF><cc:Work rdf:about=""><dc:format>image/svg+xml</dc:format><dc:type rdf:resource="http://purl.org/dc/dcmitype/StillImage"/><dc:title>AmeriCorps NCCC (National Civilian Community Corps) Logo</dc:title></cc:Work></rdf:RDF></metadata>
<polyline transform="translate(-472,-137)" points="747.33 174.41 755.87 145.5 774.87 168.25 785.8 140.13 802.86 164.35 816.07 137.27 830.97 162.88 846.45 137 859.2 163.73 876.78 139.23 887.24 166.92 906.81 143.97 914.94 172.46 936.33 151.24 942.06 180.29 965.16 160.91 968.42 190.36 993.07 172.99 993.86 202.6 1019.9 187.36 1018.2 216.93 1045.4 203.92 1041.2 233.23 1069.4 222.55 1062.8 251.42 1091.8 243.13 1082.8 271.36 1112.4 265.5 1101.1 292.89 1131 289.55 1117.5 315.87 1147.6 315.05 1131.9 340.12 1162 341.85 1144.2 365.53 1174 369.75 1154.3 391.87 1183.7 398.59 1162.3 418.98 1191 428.1 1167.9 446.63 1195.8 458.15 1171.2 474.68 1198 488.47 1172.1 502.89 1197.7 518.9 1170.7 531.07 1194.8 549.15 1166.9 559.06 1189.4 579.07 1160.8 586.6 1181.6 608.47 1152.4 613.56 1171.3 637.08 1141.8 639.72 1158.6 664.72 1129 664.92 1143.7 691.22 1114.2 688.91 1126.6 716.39 1097.4 711.61 1107.5 740.01 1078.7 732.8 1086.4 762 1058.4 752.4 1063.6 782.09 1036.5 770.21 1039.2 800.25 1013.2 786.08 1013.4 816.27 988.61 800.01 986.25 830.08 962.95 811.8 958.12 841.54 936.41 821.4 929.1 850.65 909.13 828.76 899.41 857.28 881.38 833.8 869.28 861.4 853.28 836.5 838.91 863 825.04 836.84 808.51 862.07 796.88 834.83 778.31 858.55 769.01 830.43 748.51 852.55 741.58 823.77 719.28 844.06 714.79 814.81 690.9 833.19 688.88 803.63 663.52 819.95 663.98 790.34 637.34 804.46 640.27 775 612.56 786.86 617.94 757.73 589.33 767.22 597.12 738.66 567.8 745.72 577.99 717.91 548.19 722.49 560.66 695.6 530.55 697.7 545.22 671.97 515.09 671.51 531.84 647.11 501.85 644.14 520.58 621.23 490.93 615.74 511.54 594.45 482.45 586.55 504.76 567.08 476.43 556.74 500.31 539.19 472.94 526.53 498.19 511.04 472 496.13 498.44 482.8 473.57 465.74 501.06 454.7 477.71 435.63 506 426.9 484.35 405.94 513.26 399.62 493.43 376.92 522.78 373.06 504.92 348.74 534.5 347.35 518.72 321.66 548.31 322.74 534.74 295.83 564.16 299.35 552.87 271.39 581.88 277.39 572.98 248.56 601.39 256.99 594.94 227.52 622.54 238.26 618.58 208.38 645.18 221.41 643.72 191.28 669.13 206.47 670.22 176.33 694.28 193.66 697.88 163.7 720.4 182.93 726.49 153.38 747.33 174.41"/>
<polyline transform="translate(-472,-137)" points="661.18 498.68 629.33 510.8 661.43 515.95 644.28 522.46 664.03 524.87 634.14 542.54 666.11 543.12 650.92 554.68 670.79 553.71 644.37 576.21 675.95 571.35 662.97 585.34 682.38 580.97 660.19 607.67 690.48 597.46 680.09 613.46 698.45 605.85 681.17 635.93 709.26 620.69 701.74 638.27 718.54 627.61 706.63 660.2 731.72 640.43 727.32 658.98 742.06 645.62 735.9 679.79 756.31 655.52 754 674.11 766.43 658.57 765.79 693.28 783.05 666.39 784.92 685.36 794.52 667.94 799.82 702.24 812.24 672.81 817.33 691.19 823.8 672.4 834.88 705.28 842.08 674.13 850.24 691.39 853.41 671.76 869.95 702.26 871.73 670.38 882.71 685.97 882.49 666.09 903.97 693.33 900.29 661.58 913.79 675.08 910.15 655.52 934.34 680.38 924.97 649.22 938.29 661.85 931.87 643.01 960.79 662.18 947.4 633.19 964.42 641.8 954.89 624.37 986.66 638.31 968.5 612.03 986.73 617.61 974.37 602.04 1008.1 610.39 985.67 587.55 1004.6 589.96 989.75 576.74 1024.4 579.16 998.42 560.56 1017.5 559.65 1000.6 549.17 1035.1 545.66 1006.3 531.72 1025 527.61 1006.5 520.15 1040 510.8 1008.8 501.3 1040.7 490.07 1008.6 484.77 1025.8 478.37 1006 475.85 1036 458.3 1004 457.6 1019.3 446.08 999.4 446.99 1025.9 424.59 994.3 429.33 1007.4 415.39 987.94 419.68 1010.2 393.09 979.9 403.14 990.36 387.21 971.95 394.73 989.37 364.73 961.23 379.82 968.82 362.31 951.97 372.86 964 340.32 938.84 360.02 943.34 341.48 928.53 354.75 934.84 320.63 914.3 344.79 916.7 326.24 904.2 341.7 904.99 307.03 887.62 333.82 885.83 314.83 876.17 332.22 871.02 297.89 858.47 327.28 853.46 308.87 846.9 327.63 835.96 294.72 828.62 325.81 820.54 308.51 817.28 328.14 800.88 297.56 798.97 329.44 788.05 313.8 788.19 333.68 766.81 306.35 770.37 338.13 756.93 324.54 760.47 344.12 736.41 319.18 745.64 350.36 732.37 337.68 738.7 356.54 709.86 337.22 723.14 366.29 706.15 357.59 715.6 375.1 683.9 360.99 701.94 387.37 683.72 381.7 696.04 397.33 662.39 388.84 684.67 411.75 665.75 409.29 680.54 422.57 645.94 419.96 671.8 438.74 652.74 439.51 669.6 450.09 635.04 453.43 663.74 467.5 645.09 471.55 663.48 479.08 630.03 488.28 661.18 498.68" fill="#fff"/>
<path d="m373.18 207.57 90.709 228.35c4.7051 11.637 9.7207 16.57 20.795 16.57h8.707v15.861h-113.51v-15.861h10.705c13.729 0 22.084-3.1406 22.084-10.91 0-3.5273-0.65039-5.291-1.9863-8.4492l-18.756-47.215h-90.398l-8.6807 21.475c-2.7012 6.334-5.6924 13.371-5.6924 20.08 0 14.109 10.371 25.02 29.455 25.02h7.7022v15.861h-91.714v-15.861h5.3291c11.728 0 23.443-10.225 30.138-27.117l87.05-217.8h18.062zm-26.446 64.471-38.484 96.932h77.001l-38.517-96.932"/>
<path d="m38.044 396.97c1.5483 14.658 3.8945 29.064 7.0713 43.135h107.56c-4.6489-13.852-8.0977-28.283-10.37-43.135h-104.26" fill="#fff"/>
<path d="m170.88 249.15h-113.96c-12.577 33.034-19.873 68.542-21.073 105.57h103.4c1.7988-38.368 13.017-74.309 31.634-105.57" fill="#00449f"/>
<polyline transform="translate(-472,-137)" points="526.62 429.59 557.62 429.59 567.21 400.11 576.79 429.59 607.79 429.59 582.7 447.84 592.28 477.3 567.21 459.09 542.12 477.3 551.7 447.84 526.62 429.59" fill="#fff"/>
<path d="m139.26 362.82c0-0.69727 0.0488-1.4004 0.0552-2.0977 0.0239-2.8184 0.23438-5.5869 0.36816-8.373h-103.07c-0.0913 2.7861-0.2251 5.5664-0.24365 8.373-6e-3 0.69727-0.0547 1.4004-0.0547 2.0977 0 12.222 0.78857 24.269 2.1616 36.14h103.92c-1.979-11.777-3.1299-23.836-3.1299-36.14" fill="#ec2418"/>
<path d="m56.71 476.46h114c-7.3755-12.094-13.578-24.932-18.546-38.338h-107.59c3.251 13.102 7.2837 25.916 12.133 38.338" fill="#ec2418"/><g fill="#fff">
<path d="m363 137.38c-124.59 0-225.58 101.04-225.58 225.62 0 124.6 100.99 225.57 225.58 225.57 124.58 0 225.59-100.97 225.59-225.57 0-124.58-101.01-225.62-225.59-225.62zm0 444.61c-120.94 0-218.99-98.029-218.99-218.99 0-120.95 98.05-219.01 218.99-219.01 120.94 0 218.98 98.06 218.98 219.01 0 120.96-98.04 218.99-218.98 218.99z"/>
<path d="m363 31.815c-182.9 0-331.18 148.26-331.18 331.18 0 182.9 148.28 331.19 331.18 331.19 182.91 0 331.17-148.29 331.17-331.19 0-182.92-148.26-331.18-331.17-331.18zm0 655.83c-179.3 0-324.65-145.36-324.65-324.65 0-179.31 145.35-324.67 324.65-324.67 179.29 0 324.66 145.36 324.66 324.67 0 179.29-145.37 324.65-324.66 324.65z"/>
<path d="m163.48 225.64-43.934-52.093 8.4902-10.477 59.637 32.73-6.7412 8.3174-14.839-8.625-7.374 9.0908 11.505 12.735zm-11.396-28.456 5.3906-6.6562-16.471-9.8672c-2.7393-1.5791-5.2324-3.3223-7.8369-5.0713-1.2217-0.89648-2.4932-1.7432-3.6914-2.5312l-0.0879 0.11133c1.0195 1.0078 2.1094 2.0772 3.2432 3.0879 2.2441 2.1885 4.4648 4.2656 6.5742 6.624l12.879 14.303"/>
<path d="m206.85 178.24-7.9512 6.0498-40.523-53.279 12.671-9.6387 23.068 21.483c3.7588 3.5303 7.3477 7.3037 10.825 11.165l0.11133-0.085c-3.6006-5.5606-6.0176-9.3281-8.0977-13.239l-14.537-27.967 12.615-9.5947 40.518 53.279-7.9541 6.0498-12.747-16.764c-8.0508-10.585-15.932-21.302-23.47-32.273l-0.11719 0.085 28.377 55.002-4.831 3.6768-45.252-42.167-0.28711 0.2168c8.5635 10.195 16.784 20.651 24.835 31.236l12.747 16.764"/>
<polyline transform="translate(-472,-137)" points="725.18 284.29 698 223.12 723.71 211.69 727.69 220.66 711.12 228.03 717.97 243.44 733.24 236.66 737.23 245.63 721.96 252.41 730.33 271.25 746.9 263.89 750.89 272.86 725.18 284.29"/>
<path d="m300.53 99.596 5.9297 28.207-9.7764 2.0566-13.772-65.502 18.51-3.8936c8.458-1.7754 15.659 0.54199 18.188 12.592 1.5088 7.1631 1.6201 14.982-4.708 17.499l0.0352 0.17578c5.9971-0.25781 8.7217 4.002 10.046 10.289 0.56836 2.71 3.668 18.835 6.4424 20.259l0.26074 1.2246-10.758 2.2588c-2.0742-3.9404-3.5508-12.021-4.541-16.371-0.9082-4.0049-1.998-9.5215-5.6133-10.037-2.8564-0.4043-5.7041 0.28711-8.4961 0.87305l-1.7461 0.36913zm-2.0215-9.6064 7.6934-1.6172c3.1582-0.9375 5.1211-4.0869 3.7412-10.635-1.5381-7.3389-4.2451-8.0449-7.9688-7.3564l-7.2656 1.5293 3.7998 18.079"/>
<polyline transform="translate(-472,-137)" points="823.23 258.42 821.3 191.51 831.28 191.22 833.23 258.13 823.23 258.42"/>
<path d="m416.82 102.2c-0.24609 1.2246-0.50391 2.543-0.74414 3.7676-2.1797 12.044-6.7266 20.871-17.76 19.333-16.266-2.2617-15.527-15.316-13.061-32.994l1.3125-9.457c2.7773-16.828 5.584-29.229 21.428-27.023 8.8125 1.4062 12.973 7.7549 12.105 19.166-0.0937 1.6992-0.18164 3.3984-0.49219 5.0684l-9.7559-1.3594c0.16406-4.3008 1.623-12.208-3.2461-12.888-7.7812-1.081-8.7598 10.585-9.4746 15.712l-2.5606 18.387c-0.76172 5.4785-1.6523 14.458 5.1387 15.404 5.4434 0.75586 6.334-10.295 7.1367-14.508l9.9727 1.3916"/>
<path d="m444.93 93.839c6.3574-15.823 11.783-27.325 26.771-21.741 14.982 5.584 11.561 17.836 6.0117 33.955l-3.334 8.9502c-6.2344 16.726-11.783 28.564-27.17 22.831-15.393-5.7363-11.842-18.319-5.6133-35.048zm4.1191 18.393c-1.9277 5.1856-4.7402 13.758 1.6758 16.148 6.6973 2.4932 9.9727-6.0967 12.211-12.117l5.9824-16.055c1.875-5.0186 6.2168-16.066-0.74414-18.659-7.3535-2.7422-10.834 8.4375-12.645 13.286l-6.4805 17.396"/>
<path d="m505.94 132.82-15.844 24.082-8.3496-5.4902 36.785-55.925 15.803 10.4c7.2188 4.7461 10.652 11.49 3.8789 21.776-4.0195 6.1172-9.4922 11.707-15.732 8.9883l-0.0996 0.14648c4.4121 4.0781 3.3047 9.0117-0.23438 14.379-1.5176 2.3115-10.775 15.873-9.8262 18.847l-0.69141 1.043-9.1875-6.0381c1.3418-4.248 6.0352-10.989 8.4258-14.76 2.1973-3.4658 5.3496-8.127 3.1699-11.051-1.7227-2.3144-4.2246-3.8496-6.6035-5.4199l-1.4941-0.97852zm5.3965-8.2031 6.5566 4.3154c2.8945 1.582 6.5156 0.75879 10.189-4.834 4.1192-6.2607 2.7188-8.6807-0.39253-10.834l-6.1992-4.084-10.154 15.437"/>
<path d="m525.94 183.41 47.918-46.731 14.256 14.616c6.6856 6.8496 1.8281 15.674-4.8808 22.219-4.084 3.9873-9.5391 7.6025-14.859 7.5117-4.4297-0.0674-8.0743-2.3994-10.705-5.2207l-4.6817-4.8047-20.068 19.564zm34.072-19.263 3.7382 3.832c3.0411 3.1172 6.7442 3.5918 12.562-2.0772 5.4903-5.3555 4.6289-7.9043 0.6856-11.941l-3.1875-3.2754-13.799 13.462"/>
<path d="m610.04 213.51c5.0918-3.1348 9.8379-6.6475 6.9024-11.294-1.7989-2.8359-4.377-3.7383-8.2266-1.3066-4.2949 2.7188-4.5879 5.9443-5.0156 9.9346-0.4336 4.1602-1.4121 11.959-2.7891 16.128-1.7109 5.1416-4.5351 8.1943-9.4336 11.294-10.711 6.7764-19.881 4.6348-25.107-3.6299-6.416-10.137-1.6172-18.243 8.4902-24.639l4.1426-2.625 5.3496 8.4492-3.3222 2.0977c-5.6133 3.3018-8.7715 7.1602-6.1407 11.323 2.2559 3.5596 5.6602 3.7705 9.9551 1.0518 3.3164-2.1035 4.8223-4.7402 5.332-8.1064 1.5118-7.125 1.125-14.572 4.6114-21.589 1.6875-3.0088 4.2773-5.751 7.2949-7.6611 9.6562-6.1084 17.684-5.1035 23.338 3.8262 8.5136 13.456-4.6817 21.302-10.23 24.891l-5.1504-8.1445"/>
<path d="m289.62 594.62 9.418 3.3359-22.366 63.088-9.8242-3.4805 0.63086-25.059c0.16504-8.3691 0.85449-16.742 2.1572-27.453l-0.13574-0.0469c-1.5146 5.334-3.377 11.869-5.375 18.359-1.9688 6.4023-4.002 12.779-5.7871 17.824l-4.208 11.867-9.417-3.3457 22.365-63.08 9.7539 3.459-0.80859 25.559c-0.16992 8.1797-0.80664 16.383-2.1562 27.457l0.13477 0.041c1.6914-5.8281 3.5312-12.094 5.416-18.244 1.875-6.1562 3.8203-12.283 5.8174-17.92l4.3848-12.361z"/>
<path d="m345.21 649.18c-0.23047 1.2305-0.46484 2.5508-0.68945 3.7832-2.0098 12.07-6.4238 20.967-17.48 19.584-16.295-2.0215-15.746-15.094-13.537-32.801l1.1856-9.4727c2.5273-16.865 5.1562-29.312 21.027-27.336 8.834 1.2793 13.09 7.5684 12.382 18.994-0.0645 1.7031-0.13574 3.3965-0.41895 5.0762l-9.7764-1.2207c0.10645-4.3008 1.456-12.232-3.4365-12.842-7.791-0.97266-8.5977 10.713-9.2402 15.848l-2.293 18.418c-0.68359 5.4922-1.4434 14.486 5.3574 15.33 5.457 0.68359 6.1875-10.373 6.9248-14.605z"/>
<path d="m404.83 646.86c0.0352 1.25 0.0771 2.5879 0.1123 3.8359 0.53516 12.227-1.9394 21.842-13.043 22.787-16.359 1.3887-18.529-11.506-20.037-29.293l-0.81348-9.5098c-1.0137-17.021-1.0195-29.742 14.916-31.094 8.9053-0.57813 14.368 4.6914 16.048 16.012 0.28906 1.6777 0.57227 3.3555 0.64258 5.0527l-9.8125 0.83398c-0.79004-4.2383-1.1133-12.271-6.0234-11.852-7.8262 0.66406-6.1992 12.26-5.7578 17.414l1.5684 18.502c0.4707 5.5117 1.5908 14.461 8.4219 13.887 5.4746-0.46289 3.8945-11.443 3.748-15.729z"/>
<path d="m462.68 632.3c0.29492 1.2109 0.61328 2.5098 0.90137 3.7324 3.041 11.855 2.5996 21.771-8.0684 24.975-15.723 4.7324-20.502-7.4356-25.642-24.525l-2.7529-9.1504c-4.502-16.447-7.125-28.889 8.1924-33.496 8.5928-2.3984 15.028 1.6328 19.001 12.361 0.625 1.5879 1.249 3.168 1.668 4.8086l-9.4356 2.8438c-1.6445-3.9785-3.6133-11.775-8.334-10.355-7.5195 2.2637-3.5352 13.27-2.0449 18.232l5.3457 17.773c1.5977 5.2969 4.5312 13.832 11.098 11.857 5.2617-1.5859 1.4609-12.002 0.43555-16.16z"/>
</g></svg>
